<mxfile host="app.diagrams.net" modified="2024-01-23T13:25:18.417Z" agent="Mozilla/5.0 (Windows NT 10.0; Win64; x64) AppleWebKit/537.36 (KHTML, like Gecko) Chrome/120.0.0.0 Safari/537.36" etag="Xy2aCOF4tNIy5vYSMSxR" version="22.1.21" type="github">
  <diagram id="C5RBs43oDa-KdzZeNtuy" name="Page-1">
    <mxGraphModel dx="934" dy="1703" grid="1" gridSize="10" guides="1" tooltips="1" connect="1" arrows="1" fold="1" page="1" pageScale="1" pageWidth="827" pageHeight="1169" math="0" shadow="0">
      <root>
        <mxCell id="WIyWlLk6GJQsqaUBKTNV-0" />
        <mxCell id="WIyWlLk6GJQsqaUBKTNV-1" parent="WIyWlLk6GJQsqaUBKTNV-0" />
        <mxCell id="8qzfI5khQ6XbO_WUPmWW-1" value="1" style="endArrow=open;html=1;endSize=12;startArrow=diamondThin;startSize=14;startFill=0;edgeStyle=orthogonalEdgeStyle;align=left;verticalAlign=bottom;rounded=0;entryX=0.5;entryY=0;entryDx=0;entryDy=0;exitX=0.501;exitY=1.009;exitDx=0;exitDy=0;exitPerimeter=0;" edge="1" parent="WIyWlLk6GJQsqaUBKTNV-1" source="8qzfI5khQ6XbO_WUPmWW-26" target="8qzfI5khQ6XbO_WUPmWW-4">
          <mxGeometry x="-0.0909" y="10" relative="1" as="geometry">
            <mxPoint x="320.75" y="110" as="sourcePoint" />
            <mxPoint x="320.75" y="230" as="targetPoint" />
            <mxPoint as="offset" />
          </mxGeometry>
        </mxCell>
        <mxCell id="8qzfI5khQ6XbO_WUPmWW-4" value="MdCachePool" style="swimlane;fontStyle=1;align=center;verticalAlign=top;childLayout=stackLayout;horizontal=1;startSize=26;horizontalStack=0;resizeParent=1;resizeParentMax=0;resizeLast=0;collapsible=1;marginBottom=0;whiteSpace=wrap;html=1;" vertex="1" parent="WIyWlLk6GJQsqaUBKTNV-1">
          <mxGeometry x="161.75" y="210" width="360" height="34" as="geometry" />
        </mxCell>
        <mxCell id="8qzfI5khQ6XbO_WUPmWW-6" value="" style="line;strokeWidth=1;fillColor=none;align=left;verticalAlign=middle;spacingTop=-1;spacingLeft=3;spacingRight=3;rotatable=0;labelPosition=right;points=[];portConstraint=eastwest;strokeColor=inherit;" vertex="1" parent="8qzfI5khQ6XbO_WUPmWW-4">
          <mxGeometry y="26" width="360" height="8" as="geometry" />
        </mxCell>
        <mxCell id="8qzfI5khQ6XbO_WUPmWW-20" value="Client" style="html=1;whiteSpace=wrap;" vertex="1" parent="WIyWlLk6GJQsqaUBKTNV-1">
          <mxGeometry x="286.75" y="-170" width="110" height="50" as="geometry" />
        </mxCell>
        <mxCell id="8qzfI5khQ6XbO_WUPmWW-21" style="edgeStyle=orthogonalEdgeStyle;rounded=0;orthogonalLoop=1;jettySize=auto;html=1;exitX=0.5;exitY=1;exitDx=0;exitDy=0;dashed=1;entryX=0.5;entryY=0;entryDx=0;entryDy=0;" edge="1" parent="WIyWlLk6GJQsqaUBKTNV-1" source="8qzfI5khQ6XbO_WUPmWW-20" target="8qzfI5khQ6XbO_WUPmWW-23">
          <mxGeometry relative="1" as="geometry">
            <mxPoint x="321.2500000000002" y="-10" as="targetPoint" />
          </mxGeometry>
        </mxCell>
        <mxCell id="8qzfI5khQ6XbO_WUPmWW-23" value="MdCachePoolproxy" style="swimlane;fontStyle=1;align=center;verticalAlign=top;childLayout=stackLayout;horizontal=1;startSize=26;horizontalStack=0;resizeParent=1;resizeParentMax=0;resizeLast=0;collapsible=1;marginBottom=0;whiteSpace=wrap;html=1;" vertex="1" parent="WIyWlLk6GJQsqaUBKTNV-1">
          <mxGeometry x="182.25" y="-60" width="319" height="158" as="geometry" />
        </mxCell>
        <mxCell id="8qzfI5khQ6XbO_WUPmWW-24" value="-cachedPoolFactory&lt;span style=&quot;background-color: initial;&quot;&gt;:&amp;nbsp;&lt;/span&gt;Map&amp;lt;String, MdCachePool&amp;gt;&lt;br&gt;-MD_MODULE_DAO:ModuleDAO&lt;br&gt;-MD_COMPONENT_DAO:ComponentDAO&lt;br&gt;-BASE_DAO:BaseDAO" style="text;strokeColor=none;fillColor=none;align=left;verticalAlign=top;spacingLeft=4;spacingRight=4;overflow=hidden;rotatable=0;points=[[0,0.5],[1,0.5]];portConstraint=eastwest;whiteSpace=wrap;html=1;" vertex="1" parent="8qzfI5khQ6XbO_WUPmWW-23">
          <mxGeometry y="26" width="319" height="64" as="geometry" />
        </mxCell>
        <mxCell id="8qzfI5khQ6XbO_WUPmWW-25" value="" style="line;strokeWidth=1;fillColor=none;align=left;verticalAlign=middle;spacingTop=-1;spacingLeft=3;spacingRight=3;rotatable=0;labelPosition=right;points=[];portConstraint=eastwest;strokeColor=inherit;" vertex="1" parent="8qzfI5khQ6XbO_WUPmWW-23">
          <mxGeometry y="90" width="319" height="8" as="geometry" />
        </mxCell>
        <mxCell id="8qzfI5khQ6XbO_WUPmWW-26" value="+ getMdCachePoolByDataSource():&amp;nbsp;MdCachePool&lt;br&gt;+getComponentByTypeID(String typeID, boolean needLoadFromDB, boolean bReload):IComponent" style="text;strokeColor=none;fillColor=none;align=left;verticalAlign=top;spacingLeft=4;spacingRight=4;overflow=hidden;rotatable=0;points=[[0,0.5],[1,0.5]];portConstraint=eastwest;whiteSpace=wrap;html=1;" vertex="1" parent="8qzfI5khQ6XbO_WUPmWW-23">
          <mxGeometry y="98" width="319" height="60" as="geometry" />
        </mxCell>
      </root>
    </mxGraphModel>
  </diagram>
</mxfile>
